# Tiled2Unity generated file. Do not modify by hand.
# Wavefront file for 'tiled_map_mesh_0007.obj'

# Vertices (Count = 8)
v -6.24 -2.88 0
v -6.4 -2.88 0
v -6.4 -2.72 0
v -6.24 -2.72 0
v -7.68 -2.88 0
v -7.84 -2.88 0
v -7.84 -2.72 0
v -7.68 -2.72 0

# Texture cooridinates (Count = 8)
vt 0.0001220703 0.8897772
vt 0.09568632 0.8897772
vt 0.09568632 0.9998779
vt 0.0001220703 0.9998779
vt 0.8623975 0.8897772
vt 0.9579617 0.8897772
vt 0.9579617 0.9998779
vt 0.8623975 0.9998779

# Normal
vn 0 0 -1

# Mesh description
g tiled_map_mesh_0007

# Faces
f 1/1/1 2/2/1 3/3/1 4/4/1
f 5/5/1 6/6/1 7/7/1 8/8/1

