# Tiled2Unity generated file. Do not modify by hand.
# Wavefront file for 'tiled_map_mesh_0005.obj'

# Vertices (Count = 120)
v -6.24 -3.84 0
v -6.4 -3.84 0
v -6.4 -3.68 0
v -6.24 -3.68 0
v -6.4 -3.84 0
v -6.56 -3.84 0
v -6.56 -3.68 0
v -6.4 -3.68 0
v -6.56 -3.84 0
v -6.72 -3.84 0
v -6.72 -3.68 0
v -6.56 -3.68 0
v -6.72 -3.84 0
v -6.88 -3.84 0
v -6.88 -3.68 0
v -6.72 -3.68 0
v -6.88 -3.84 0
v -7.04 -3.84 0
v -7.04 -3.68 0
v -6.88 -3.68 0
v -7.04 -3.84 0
v -7.2 -3.84 0
v -7.2 -3.68 0
v -7.04 -3.68 0
v -7.2 -3.84 0
v -7.36 -3.84 0
v -7.36 -3.68 0
v -7.2 -3.68 0
v -7.36 -3.84 0
v -7.52 -3.84 0
v -7.52 -3.68 0
v -7.36 -3.68 0
v -7.52 -3.84 0
v -7.68 -3.84 0
v -7.68 -3.68 0
v -7.52 -3.68 0
v -7.68 -3.84 0
v -7.84 -3.84 0
v -7.84 -3.68 0
v -7.68 -3.68 0
v -6.24 -4 0
v -6.4 -4 0
v -6.4 -3.84 0
v -6.24 -3.84 0
v -6.4 -4 0
v -6.56 -4 0
v -6.56 -3.84 0
v -6.4 -3.84 0
v -6.56 -4 0
v -6.72 -4 0
v -6.72 -3.84 0
v -6.56 -3.84 0
v -6.72 -4 0
v -6.88 -4 0
v -6.88 -3.84 0
v -6.72 -3.84 0
v -6.88 -4 0
v -7.04 -4 0
v -7.04 -3.84 0
v -6.88 -3.84 0
v -7.04 -4 0
v -7.2 -4 0
v -7.2 -3.84 0
v -7.04 -3.84 0
v -7.2 -4 0
v -7.36 -4 0
v -7.36 -3.84 0
v -7.2 -3.84 0
v -7.36 -4 0
v -7.52 -4 0
v -7.52 -3.84 0
v -7.36 -3.84 0
v -7.52 -4 0
v -7.68 -4 0
v -7.68 -3.84 0
v -7.52 -3.84 0
v -7.68 -4 0
v -7.84 -4 0
v -7.84 -3.84 0
v -7.68 -3.84 0
v -6.24 -4.16 0
v -6.4 -4.16 0
v -6.4 -4 0
v -6.24 -4 0
v -6.4 -4.16 0
v -6.56 -4.16 0
v -6.56 -4 0
v -6.4 -4 0
v -6.56 -4.16 0
v -6.72 -4.16 0
v -6.72 -4 0
v -6.56 -4 0
v -6.72 -4.16 0
v -6.88 -4.16 0
v -6.88 -4 0
v -6.72 -4 0
v -6.88 -4.16 0
v -7.04 -4.16 0
v -7.04 -4 0
v -6.88 -4 0
v -7.04 -4.16 0
v -7.2 -4.16 0
v -7.2 -4 0
v -7.04 -4 0
v -7.2 -4.16 0
v -7.36 -4.16 0
v -7.36 -4 0
v -7.2 -4 0
v -7.36 -4.16 0
v -7.52 -4.16 0
v -7.52 -4 0
v -7.36 -4 0
v -7.52 -4.16 0
v -7.68 -4.16 0
v -7.68 -4 0
v -7.52 -4 0
v -7.68 -4.16 0
v -7.84 -4.16 0
v -7.84 -4 0
v -7.68 -4 0

# Texture cooridinates (Count = 120)
vt 0.0001220703 0.2277083
vt 0.09568632 0.2277083
vt 0.09568632 0.337809
vt 0.0001220703 0.337809
vt 0.09593046 0.2277083
vt 0.1914947 0.2277083
vt 0.1914947 0.337809
vt 0.09593046 0.337809
vt 0.1917388 0.2277083
vt 0.2873031 0.2277083
vt 0.2873031 0.337809
vt 0.1917388 0.337809
vt 0.2875472 0.2277083
vt 0.3831115 0.2277083
vt 0.3831115 0.337809
vt 0.2875472 0.337809
vt 0.3833556 0.2277083
vt 0.4789198 0.2277083
vt 0.4789198 0.337809
vt 0.3833556 0.337809
vt 0.479164 0.2277083
vt 0.5747283 0.2277083
vt 0.5747283 0.337809
vt 0.479164 0.337809
vt 0.5749724 0.2277083
vt 0.6705366 0.2277083
vt 0.6705366 0.337809
vt 0.5749724 0.337809
vt 0.6707808 0.2277083
vt 0.766345 0.2277083
vt 0.766345 0.337809
vt 0.6707808 0.337809
vt 0.7665892 0.2277083
vt 0.8621534 0.2277083
vt 0.8621534 0.337809
vt 0.7665892 0.337809
vt 0.8623975 0.2277083
vt 0.9579617 0.2277083
vt 0.9579617 0.337809
vt 0.8623975 0.337809
vt 0.0001220703 0.1173635
vt 0.09568632 0.1173635
vt 0.09568632 0.2274641
vt 0.0001220703 0.2274641
vt 0.09593046 0.1173635
vt 0.1914947 0.1173635
vt 0.1914947 0.2274641
vt 0.09593046 0.2274641
vt 0.1917388 0.1173635
vt 0.2873031 0.1173635
vt 0.2873031 0.2274641
vt 0.1917388 0.2274641
vt 0.2875472 0.1173635
vt 0.3831115 0.1173635
vt 0.3831115 0.2274641
vt 0.2875472 0.2274641
vt 0.3833556 0.1173635
vt 0.4789198 0.1173635
vt 0.4789198 0.2274641
vt 0.3833556 0.2274641
vt 0.479164 0.1173635
vt 0.5747283 0.1173635
vt 0.5747283 0.2274641
vt 0.479164 0.2274641
vt 0.5749724 0.1173635
vt 0.6705366 0.1173635
vt 0.6705366 0.2274641
vt 0.5749724 0.2274641
vt 0.6707808 0.1173635
vt 0.766345 0.1173635
vt 0.766345 0.2274641
vt 0.6707808 0.2274641
vt 0.7665892 0.1173635
vt 0.8621534 0.1173635
vt 0.8621534 0.2274641
vt 0.7665892 0.2274641
vt 0.8623975 0.1173635
vt 0.9579617 0.1173635
vt 0.9579617 0.2274641
vt 0.8623975 0.2274641
vt 0.0001220703 0.007018626
vt 0.09568632 0.007018626
vt 0.09568632 0.1171193
vt 0.0001220703 0.1171193
vt 0.09593046 0.007018626
vt 0.1914947 0.007018626
vt 0.1914947 0.1171193
vt 0.09593046 0.1171193
vt 0.1917388 0.007018626
vt 0.2873031 0.007018626
vt 0.2873031 0.1171193
vt 0.1917388 0.1171193
vt 0.2875472 0.007018626
vt 0.3831115 0.007018626
vt 0.3831115 0.1171193
vt 0.2875472 0.1171193
vt 0.3833556 0.007018626
vt 0.4789198 0.007018626
vt 0.4789198 0.1171193
vt 0.3833556 0.1171193
vt 0.479164 0.007018626
vt 0.5747283 0.007018626
vt 0.5747283 0.1171193
vt 0.479164 0.1171193
vt 0.5749724 0.007018626
vt 0.6705366 0.007018626
vt 0.6705366 0.1171193
vt 0.5749724 0.1171193
vt 0.6707808 0.007018626
vt 0.766345 0.007018626
vt 0.766345 0.1171193
vt 0.6707808 0.1171193
vt 0.7665892 0.007018626
vt 0.8621534 0.007018626
vt 0.8621534 0.1171193
vt 0.7665892 0.1171193
vt 0.8623975 0.007018626
vt 0.9579617 0.007018626
vt 0.9579617 0.1171193
vt 0.8623975 0.1171193

# Normal
vn 0 0 -1

# Mesh description
g tiled_map_mesh_0005

# Faces
f 1/1/1 2/2/1 3/3/1 4/4/1
f 5/5/1 6/6/1 7/7/1 8/8/1
f 9/9/1 10/10/1 11/11/1 12/12/1
f 13/13/1 14/14/1 15/15/1 16/16/1
f 17/17/1 18/18/1 19/19/1 20/20/1
f 21/21/1 22/22/1 23/23/1 24/24/1
f 25/25/1 26/26/1 27/27/1 28/28/1
f 29/29/1 30/30/1 31/31/1 32/32/1
f 33/33/1 34/34/1 35/35/1 36/36/1
f 37/37/1 38/38/1 39/39/1 40/40/1
f 41/41/1 42/42/1 43/43/1 44/44/1
f 45/45/1 46/46/1 47/47/1 48/48/1
f 49/49/1 50/50/1 51/51/1 52/52/1
f 53/53/1 54/54/1 55/55/1 56/56/1
f 57/57/1 58/58/1 59/59/1 60/60/1
f 61/61/1 62/62/1 63/63/1 64/64/1
f 65/65/1 66/66/1 67/67/1 68/68/1
f 69/69/1 70/70/1 71/71/1 72/72/1
f 73/73/1 74/74/1 75/75/1 76/76/1
f 77/77/1 78/78/1 79/79/1 80/80/1
f 81/81/1 82/82/1 83/83/1 84/84/1
f 85/85/1 86/86/1 87/87/1 88/88/1
f 89/89/1 90/90/1 91/91/1 92/92/1
f 93/93/1 94/94/1 95/95/1 96/96/1
f 97/97/1 98/98/1 99/99/1 100/100/1
f 101/101/1 102/102/1 103/103/1 104/104/1
f 105/105/1 106/106/1 107/107/1 108/108/1
f 109/109/1 110/110/1 111/111/1 112/112/1
f 113/113/1 114/114/1 115/115/1 116/116/1
f 117/117/1 118/118/1 119/119/1 120/120/1

